<?xml version="1.0" encoding="utf-8"?>
<!-- Generator: Adobe Illustrator 28.2.0, SVG Export Plug-In . SVG Version: 6.00 Build 0)  -->
<svg version="1.1" id="Illustrative_symbols" xmlns="http://www.w3.org/2000/svg" xmlns:xlink="http://www.w3.org/1999/xlink"
	 x="0px" y="0px" viewBox="62 0 205 205" style="enable-background:new 0 0 205 205;" xml:space="preserve">
<style type="text/css">
	.st0{fill:#00A1C5;}
	.st1{fill:none;stroke:#00A1C5;stroke-width:8;stroke-linecap:round;stroke-miterlimit:10;}
</style>
<g>
	<g>
		<path class="st0" d="M123.3,118.8c-1.3,0-2.2-0.2-2.7-0.6c-0.6-0.4-0.9-0.9-1.1-1.5c-0.2-0.6-0.2-1.3-0.2-2V90.6
			c0-0.6,0.1-1.3,0.2-1.9c0.1-0.6,0.5-1.1,1-1.5c0.6-0.4,1.5-0.6,2.9-0.6h8c2.2,0,4.2,0.4,6.2,1.2c1.9,0.8,3.6,2,5.1,3.4
			c1.5,1.5,2.6,3.2,3.5,5.1c0.8,1.9,1.3,4,1.3,6.2c0,2.3-0.4,4.4-1.3,6.3c-0.8,2-2,3.7-3.5,5.2c-1.5,1.5-3.2,2.6-5.1,3.5
			c-1.9,0.8-4,1.2-6.3,1.2H123.3z M127.4,110.7h4c1.4,0,2.8-0.4,4-1.1c1.2-0.7,2.1-1.7,2.9-2.9c0.7-1.2,1.1-2.5,1.1-4
			s-0.4-2.8-1.1-4c-0.7-1.2-1.7-2.2-2.9-2.9c-1.2-0.7-2.5-1.1-4-1.1h-3.9V110.7z"/>
		<path class="st0" d="M156.9,118.8c-1.3,0-2.3-0.2-2.8-0.6c-0.6-0.4-0.9-0.9-1-1.5c-0.1-0.6-0.2-1.3-0.2-2V90.7
			c0-1.5,0.3-2.6,0.9-3.2c0.6-0.6,1.7-0.9,3.2-0.9h17c0.7,0,1.3,0.1,1.9,0.2c0.6,0.1,1.1,0.5,1.5,1c0.4,0.6,0.6,1.5,0.6,2.9
			c0,1.3-0.2,2.3-0.6,2.8c-0.4,0.6-0.9,0.9-1.5,1c-0.6,0.1-1.3,0.2-2,0.2H161v4.5h8.7c0.7,0,1.3,0.1,1.8,0.2c0.6,0.1,1,0.4,1.3,0.9
			c0.3,0.5,0.5,1.3,0.5,2.5c0,1.1-0.2,1.9-0.5,2.4c-0.3,0.5-0.8,0.8-1.3,0.9s-1.2,0.1-1.8,0.1H161v8.6c0,0.7-0.1,1.3-0.2,1.9
			c-0.1,0.6-0.5,1.1-1,1.5C159.3,118.6,158.3,118.8,156.9,118.8z"/>
		<path class="st0" d="M196.5,119.3c-2.3,0-4.3-0.5-6.1-1.4s-3.2-2.1-4.4-3.7c-1.2-1.5-2.1-3.2-2.7-5c-0.6-1.8-0.9-3.7-0.9-5.5V90.7
			c0-0.7,0.1-1.3,0.2-2c0.1-0.6,0.5-1.1,1-1.5c0.6-0.4,1.5-0.6,2.9-0.6c1.3,0,2.3,0.2,2.9,0.6c0.6,0.4,0.9,0.9,1,1.5
			c0.1,0.6,0.2,1.3,0.2,2v13c0,1.1,0.2,2.2,0.5,3.3c0.4,1.1,1,2.1,1.8,2.9c0.9,0.8,2.1,1.2,3.7,1.2c1.2,0,2.3-0.3,3.2-0.9
			c0.9-0.6,1.6-1.5,2.1-2.6c0.5-1.1,0.7-2.4,0.7-3.9V90.5c0-0.6,0.1-1.3,0.2-1.8c0.1-0.6,0.5-1.1,1-1.4c0.6-0.4,1.5-0.6,2.9-0.6
			c1.3,0,2.3,0.2,2.9,0.6s0.9,0.9,1,1.6c0.1,0.6,0.2,1.3,0.2,2v13.1c0,1.9-0.3,3.7-0.9,5.5c-0.6,1.8-1.5,3.5-2.7,5
			c-1.2,1.5-2.7,2.7-4.5,3.6C200.8,118.9,198.8,119.3,196.5,119.3z"/>
	</g>
</g>
<g>
	<g>
		<path class="st1" d="M224.4,161.9c15.2-15.2,24.6-36.2,24.6-59.4c0-46.4-37.6-84-84-84"/>
		<g>
			<polygon class="st0" points="180.5,4.9 166.9,18.5 180.5,32.1 168.9,32.1 155.4,18.5 168.9,4.9 			"/>
		</g>
	</g>
</g>
<g>
	<g>
		<path class="st1" d="M105.6,43.1C90.4,58.3,81,79.3,81,102.5c0,46.4,37.6,84,84,84"/>
		<g>
			<polygon class="st0" points="149.5,200.1 163.1,186.5 149.5,172.9 161.1,172.9 174.6,186.5 161.1,200.1 			"/>
		</g>
	</g>
</g>
</svg>
