<svg xmlns="http://www.w3.org/2000/svg" version="1.1" width="3300" height="2000"><g id="Notes"><style>
    text {
      font-family: monospace;
      text-anchor: middle;
    }
    text.emphasis {
      font-weight:bold;
    }
    text.lanchor {
      text-anchor: start;
    }
  </style><rect height="2200" id="artboard" fill="white" width="3300" x="0" y="0"/><line id="" style="fill:none;stroke:black;stroke-width:0.5;" x1="263" x2="3036" y1="292" y2="292"/><text class="lanchor emphasis" transform="matrix(1 0 0 1 263 322)">Weight/Scale Variations</text><text transform="matrix(1 0 0 1 559.711 322)">Ultralight</text><text transform="matrix(1 0 0 1 856.422 322)">Thin</text><text transform="matrix(1 0 0 1 1153.13 322)">Light</text><text transform="matrix(1 0 0 1 1449.84 322)">Regular</text><text transform="matrix(1 0 0 1 1746.56 322)">Medium</text><text transform="matrix(1 0 0 1 2043.27 322)">Semibold</text><text transform="matrix(1 0 0 1 2339.98 322)">Bold</text><text transform="matrix(1 0 0 1 2636.69 322)">Heavy</text><text transform="matrix(1 0 0 1 2933.4 322)">Black</text><text id="template-version" style="text-anchor: end;" transform="matrix(1 0 0 1 3036 1933)">Template v.1.0</text><text class="lanchor" transform="matrix(1 0 0 1 263 726)">Small</text><text class="lanchor" transform="matrix(1 0 0 1 263 1156)">Medium</text><text class="lanchor" transform="matrix(1 0 0 1 263 1586)">Large</text></g><g id="Guides"><g id="H-reference" style="fill:#27AAE1;stroke:none;" transform="matrix(1 0 0 1 339 696)"><path d="M 54.9316 0 L 57.666 0 L 30.5664 -70.459 L 28.0762 -70.459 L 0.976562 0 L 3.66211 0 L 12.9395 -24.4629 L 45.7031 -24.4629 Z M 29.1992 -67.0898 L 29.4434 -67.0898 L 44.8242 -26.709 L 13.8184 -26.709 Z"/></g><line id="Baseline-S" style="fill:none;stroke:#27AAE1;opacity:1;stroke-width:0.577;" x1="263" x2="3036" y1="696" y2="696"/><line id="Capline-S" style="fill:none;stroke:#27AAE1;opacity:1;stroke-width:0.577;" x1="263" x2="3036" y1="625.541" y2="625.541"/><g id="H-reference" style="fill:#27AAE1;stroke:none;" transform="matrix(1 0 0 1 339 1126)"><path d="M 54.9316 0 L 57.666 0 L 30.5664 -70.459 L 28.0762 -70.459 L 0.976562 0 L 3.66211 0 L 12.9395 -24.4629 L 45.7031 -24.4629 Z M 29.1992 -67.0898 L 29.4434 -67.0898 L 44.8242 -26.709 L 13.8184 -26.709 Z"/></g><line id="Baseline-M" style="fill:none;stroke:#27AAE1;opacity:1;stroke-width:0.577;" x1="263" x2="3036" y1="1126" y2="1126"/><line id="Capline-M" style="fill:none;stroke:#27AAE1;opacity:1;stroke-width:0.577;" x1="263" x2="3036" y1="1055.54" y2="1055.54"/><g id="H-reference" style="fill:#27AAE1;stroke:none;" transform="matrix(1 0 0 1 339 1556)"><path d="M 54.9316 0 L 57.666 0 L 30.5664 -70.459 L 28.0762 -70.459 L 0.976562 0 L 3.66211 0 L 12.9395 -24.4629 L 45.7031 -24.4629 Z M 29.1992 -67.0898 L 29.4434 -67.0898 L 44.8242 -26.709 L 13.8184 -26.709 Z"/></g><line id="Baseline-L" style="fill:none;stroke:#27AAE1;opacity:1;stroke-width:0.577;" x1="263" x2="3036" y1="1556" y2="1556"/><line id="Capline-L" style="fill:none;stroke:#27AAE1;opacity:1;stroke-width:0.577;" x1="263" x2="3036" y1="1485.54" y2="1485.54"/><rect height="119.336" id="left-margin" style="fill:darkred;stroke:none;opacity:0.4;" width="12.4512" x="1394.06" y="1030.79"/><rect height="119.336" id="right-margin" style="fill:darkgreen;stroke:none;opacity:0.4;" width="12.4512" x="1502.5112" y="1030.79"/><rect x="1406.5112" y="1045" width="96" height="96" fill="none" stroke="blue" stroke-dasharray="5"/><rect x="1394.06" y="1030.79" width="120.9024" height="119.336" fill="none" stroke="blue"/></g><g id="Symbols"><g id="Bold-L" transform="matrix(1 0 0 1 2266 1556)"><path d="M29.509 -27.329 Q26.163 -27.329 23.966 -29.534 Q21.769 -31.739 21.769 -34.936 Q21.769 -38.132 23.966 -40.309 Q26.163 -42.486 29.509 -42.486 H74.014 Q74.014 -42.486 74.014 -42.486 Q74.014 -42.486 74.014 -42.486 L107.231 -75.704 H98.846 Q95.662 -75.704 93.465 -77.909 Q91.267 -80.114 91.267 -83.311 Q91.267 -86.507 93.465 -88.765 Q95.662 -91.022 98.846 -91.022 H125.453 Q128.637 -91.022 130.915 -88.745 Q133.192 -86.467 133.192 -83.282 V-56.676 Q133.192 -53.492 130.907 -51.295 Q128.621 -49.097 125.424 -49.097 Q122.228 -49.097 120.051 -51.295 Q117.874 -53.492 117.874 -56.676 V-64.9 L84.817 -31.844 Q82.721 -29.747 79.855 -28.538 Q76.988 -27.329 74.014 -27.329 H29.509 Z M98.846 20.401 Q95.662 20.401 93.465 18.196 Q91.267 15.991 91.267 12.794 Q91.267 9.598 93.465 7.421 Q95.662 5.244 98.846 5.244 H107.07 L89.655 -12.171 Q87.398 -14.396 87.398 -17.557 Q87.398 -20.717 89.655 -22.975 Q91.913 -25.232 95.008 -25.313 Q98.103 -25.394 100.297 -23.136 L117.874 -5.882 V-13.784 Q117.874 -16.968 120.079 -19.165 Q122.284 -21.362 125.481 -21.362 Q128.678 -21.362 130.935 -19.165 Q133.192 -16.968 133.192 -13.784 V12.823 Q133.192 16.007 130.915 18.204 Q128.637 20.401 125.453 20.401 H98.846 Z"/></g><g id="Semibold-L" transform="matrix(1 0 0 1 1970.27 1556)"><path d="M29.999 -28.521 Q27.214 -28.521 25.368 -30.375 Q23.521 -32.23 23.521 -34.936 Q23.521 -37.642 25.368 -39.468 Q27.214 -41.294 29.999 -41.294 H74.504 Q74.504 -41.294 74.504 -41.294 Q74.504 -41.294 74.504 -41.294 L109.545 -76.335 H98.285 Q95.591 -76.335 93.745 -78.189 Q91.898 -80.044 91.898 -82.75 Q91.898 -85.456 93.745 -87.328 Q95.591 -89.2 98.285 -89.2 H124.892 Q127.586 -89.2 129.478 -87.308 Q131.37 -85.416 131.37 -82.722 V-56.115 Q131.37 -53.421 129.47 -51.575 Q127.569 -49.728 124.863 -49.728 Q122.157 -49.728 120.331 -51.575 Q118.505 -53.421 118.505 -56.115 V-67.213 L83.626 -32.334 Q81.88 -30.589 79.469 -29.555 Q77.058 -28.521 74.504 -28.521 H29.999 Z M98.285 18.649 Q95.591 18.649 93.745 16.794 Q91.898 14.939 91.898 12.233 Q91.898 9.527 93.745 7.701 Q95.591 5.875 98.285 5.875 H109.454 L88.884 -14.765 Q86.977 -16.64 86.977 -19.274 Q86.977 -21.909 88.884 -23.816 Q90.791 -25.723 93.395 -25.769 Q96 -25.814 97.844 -23.907 L118.505 -3.429 V-14.345 Q118.505 -17.039 120.359 -18.885 Q122.214 -20.732 124.92 -20.732 Q127.626 -20.732 129.498 -18.885 Q131.37 -17.039 131.37 -14.345 V12.262 Q131.37 14.956 129.478 16.802 Q127.586 18.649 124.892 18.649 H98.285 Z"/></g><g id="Medium-L" transform="matrix(1 0 0 1 1674.31 1556)"><path d="M30.368 -29.415 Q28.003 -29.415 26.42 -31.006 Q24.836 -32.598 24.836 -34.936 Q24.836 -37.274 26.42 -38.837 Q28.003 -40.4 30.368 -40.4 H74.873 Q74.873 -40.4 74.873 -40.4 Q74.873 -40.4 74.873 -40.4 L111.28 -76.808 H97.865 Q95.539 -76.808 93.955 -78.4 Q92.372 -79.991 92.372 -82.329 Q92.372 -84.667 93.955 -86.25 Q95.539 -87.833 97.865 -87.833 H124.471 Q126.797 -87.833 128.4 -86.23 Q130.003 -84.627 130.003 -82.301 V-55.695 Q130.003 -53.369 128.392 -51.785 Q126.781 -50.202 124.443 -50.202 Q122.105 -50.202 120.541 -51.785 Q118.978 -53.369 118.978 -55.695 V-68.949 L82.732 -32.703 Q81.249 -31.22 79.18 -30.317 Q77.111 -29.415 74.873 -29.415 H30.368 Z M97.865 17.334 Q95.539 17.334 93.955 15.742 Q92.372 14.151 92.372 11.813 Q92.372 9.475 93.955 7.911 Q95.539 6.348 97.865 6.348 H111.241 L88.305 -16.711 Q86.661 -18.323 86.661 -20.563 Q86.661 -22.803 88.305 -24.447 Q89.949 -26.091 92.186 -26.111 Q94.422 -26.13 96.003 -24.486 L118.978 -1.588 V-14.765 Q118.978 -17.091 120.57 -18.675 Q122.161 -20.258 124.499 -20.258 Q126.837 -20.258 128.42 -18.675 Q130.003 -17.091 130.003 -14.765 V11.841 Q130.003 14.167 128.4 15.75 Q126.797 17.334 124.471 17.334 H97.865 Z"/></g><g id="Regular-L" transform="matrix(1 0 0 1 1378.56 1556)"><path d="M30.637 -30.07 Q28.582 -30.07 27.191 -31.469 Q25.8 -32.868 25.8 -34.936 Q25.8 -37.004 27.191 -38.374 Q28.582 -39.745 30.637 -39.745 H75.142 Q75.142 -39.745 75.142 -39.745 Q75.142 -39.745 75.142 -39.745 L112.553 -77.155 H97.556 Q95.5 -77.155 94.11 -78.554 Q92.719 -79.953 92.719 -82.021 Q92.719 -84.089 94.11 -85.459 Q95.5 -86.83 97.556 -86.83 H124.163 Q126.218 -86.83 127.609 -85.439 Q129 -84.048 129 -81.992 V-55.386 Q129 -53.33 127.601 -51.94 Q126.202 -50.549 124.134 -50.549 Q122.066 -50.549 120.696 -51.94 Q119.325 -53.33 119.325 -55.386 V-70.221 L82.076 -32.972 Q80.786 -31.682 78.968 -30.876 Q77.149 -30.07 75.142 -30.07 H30.637 Z M97.556 16.37 Q95.5 16.37 94.11 14.971 Q92.719 13.572 92.719 11.504 Q92.719 9.436 94.11 8.066 Q95.5 6.695 97.556 6.695 H112.553 L87.881 -18.137 Q86.43 -19.556 86.43 -21.508 Q86.43 -23.459 87.881 -24.91 Q89.332 -26.361 91.299 -26.361 Q93.266 -26.361 94.654 -24.91 L119.325 -0.239 V-15.074 Q119.325 -17.13 120.724 -18.52 Q122.123 -19.911 124.191 -19.911 Q126.259 -19.911 127.629 -18.52 Q129 -17.13 129 -15.074 V11.533 Q129 13.588 127.609 14.979 Q126.218 16.37 124.163 16.37 H97.556 Z"/></g><g id="Light-L" transform="matrix(1 0 0 1 1082.77 1556)"><path d="M32.684 -31.31 Q31.129 -31.31 30.077 -32.372 Q29.025 -33.433 29.025 -35.001 Q29.025 -36.57 30.077 -37.599 Q31.129 -38.629 32.684 -38.629 H74.894 Q75.267 -38.629 75.608 -38.784 Q75.949 -38.939 76.259 -39.187 L113.297 -76.287 H95.758 Q94.202 -76.287 93.15 -77.348 Q92.099 -78.409 92.099 -79.977 Q92.099 -81.546 93.15 -82.575 Q94.202 -83.605 95.758 -83.605 H121.123 Q123.1 -83.605 124.437 -82.267 Q125.775 -80.93 125.775 -78.953 V-53.588 Q125.775 -52.032 124.714 -50.98 Q123.653 -49.929 122.084 -49.929 Q120.516 -49.929 119.486 -50.98 Q118.457 -52.032 118.457 -53.588 V-71.027 L81.58 -34.151 Q80.367 -32.928 78.603 -32.119 Q76.84 -31.31 74.894 -31.31 H32.684 Z M95.758 13.145 Q94.202 13.145 93.15 12.084 Q92.099 11.023 92.099 9.454 Q92.099 7.886 93.15 6.856 Q94.202 5.827 95.758 5.827 H113.297 L87.695 -19.936 Q86.616 -21.008 86.585 -22.481 Q86.554 -23.955 87.695 -25.065 Q88.836 -26.175 90.307 -26.175 Q91.777 -26.175 92.793 -25.034 L118.457 0.568 V-16.934 Q118.457 -18.429 119.518 -19.511 Q120.579 -20.593 122.147 -20.593 Q123.716 -20.593 124.745 -19.511 Q125.775 -18.429 125.775 -16.934 V8.493 Q125.775 10.47 124.437 11.807 Q123.1 13.145 121.123 13.145 H95.758 Z"/></g><g id="Thin-L" transform="matrix(1 0 0 1 787.282 1556)"><path d="M34.731 -32.551 Q33.676 -32.551 32.963 -33.274 Q32.25 -33.997 32.25 -35.066 Q32.25 -36.135 32.963 -36.824 Q33.676 -37.512 34.731 -37.512 H74.646 Q75.391 -37.512 76.073 -37.822 Q76.755 -38.132 77.375 -38.629 L114.041 -75.418 H93.959 Q92.905 -75.418 92.192 -76.142 Q91.478 -76.865 91.478 -77.934 Q91.478 -79.003 92.192 -79.692 Q92.905 -80.38 93.959 -80.38 H118.085 Q119.982 -80.38 121.266 -79.096 Q122.55 -77.812 122.55 -75.915 V-51.789 Q122.55 -50.735 121.827 -50.022 Q121.104 -49.308 120.034 -49.308 Q118.965 -49.308 118.277 -50.022 Q117.588 -50.735 117.588 -51.789 V-71.834 L81.084 -35.329 Q79.947 -34.174 78.239 -33.362 Q76.531 -32.551 74.646 -32.551 H34.731 Z M93.959 9.92 Q92.905 9.92 92.192 9.197 Q91.478 8.474 91.478 7.405 Q91.478 6.335 92.192 5.647 Q92.905 4.958 93.959 4.958 H114.041 L87.509 -21.735 Q86.802 -22.459 86.74 -23.455 Q86.678 -24.451 87.509 -25.22 Q88.34 -25.989 89.314 -25.989 Q90.289 -25.989 90.933 -25.158 L117.588 1.374 V-18.795 Q117.588 -19.728 118.312 -20.502 Q119.035 -21.276 120.104 -21.276 Q121.173 -21.276 121.862 -20.502 Q122.55 -19.728 122.55 -18.795 V5.455 Q122.55 7.352 121.266 8.636 Q119.982 9.92 118.085 9.92 H93.959 Z"/></g><g id="Ultralight-L" transform="matrix(1 0 0 1 491.205 1556)"><path d="M35.959 -33.295 Q35.205 -33.295 34.695 -33.816 Q34.185 -34.336 34.185 -35.106 Q34.185 -35.875 34.695 -36.359 Q35.205 -36.842 35.959 -36.842 H74.498 Q75.465 -36.842 76.352 -37.246 Q77.239 -37.649 78.045 -38.294 L114.487 -74.897 H92.88 Q92.126 -74.897 91.616 -75.418 Q91.106 -75.939 91.106 -76.708 Q91.106 -77.477 91.616 -77.961 Q92.126 -78.445 92.88 -78.445 H116.261 Q118.112 -78.445 119.363 -77.193 Q120.615 -75.942 120.615 -74.091 V-50.71 Q120.615 -49.956 120.094 -49.446 Q119.574 -48.936 118.804 -48.936 Q118.035 -48.936 117.551 -49.446 Q117.068 -49.956 117.068 -50.71 V-72.317 L80.786 -36.036 Q79.695 -34.922 78.02 -34.108 Q76.345 -33.295 74.498 -33.295 H35.959 Z M92.88 7.985 Q92.126 7.985 91.616 7.464 Q91.106 6.944 91.106 6.174 Q91.106 5.405 91.616 4.921 Q92.126 4.438 92.88 4.438 H114.487 L87.398 -22.814 Q86.914 -23.33 86.833 -24.039 Q86.752 -24.749 87.398 -25.313 Q88.043 -25.877 88.719 -25.877 Q89.396 -25.877 89.816 -25.232 L117.068 1.858 V-19.911 Q117.068 -20.508 117.588 -21.096 Q118.109 -21.685 118.878 -21.685 Q119.648 -21.685 120.131 -21.096 Q120.615 -20.508 120.615 -19.911 V3.631 Q120.615 5.482 119.363 6.733 Q118.112 7.985 116.261 7.985 H92.88 Z"/></g><g id="Bold-M" transform="matrix(1 0 0 1 2281.8 1126)"><path d="M23.75 -27.355 Q20.5 -27.355 18.188 -29.667 Q15.875 -31.98 15.875 -35.23 Q15.875 -38.48 18.188 -40.792 Q20.5 -43.105 23.75 -43.105 H56.875 Q56.875 -43.105 56.875 -43.105 Q56.875 -43.105 56.875 -43.105 L77.5 -63.73 H76.375 Q73.125 -63.73 70.812 -66.042 Q68.5 -68.355 68.5 -71.605 Q68.5 -74.855 70.812 -77.167 Q73.125 -79.48 76.375 -79.48 H96.375 Q99.625 -79.48 101.938 -77.167 Q104.25 -74.855 104.25 -71.605 V-51.605 Q104.25 -48.355 101.938 -46.042 Q99.625 -43.73 96.375 -43.73 Q93.125 -43.73 90.812 -46.042 Q88.5 -48.355 88.5 -51.605 V-52.73 L67.75 -31.98 Q65.5 -29.73 62.625 -28.542 Q59.75 -27.355 56.625 -27.355 H23.75 Z M76.375 9.02 Q73.125 9.02 70.812 6.708 Q68.5 4.395 68.5 1.145 Q68.5 -2.105 70.812 -4.417 Q73.125 -6.73 76.375 -6.73 H77.25 L72.5 -11.355 Q70.125 -13.73 70.125 -16.98 Q70.125 -20.23 72.5 -22.605 Q74.875 -24.98 78.125 -25.042 Q81.375 -25.105 83.75 -22.73 L88.5 -17.98 V-18.855 Q88.5 -22.105 90.812 -24.417 Q93.125 -26.73 96.375 -26.73 Q99.625 -26.73 101.938 -24.417 Q104.25 -22.105 104.25 -18.855 V1.145 Q104.25 4.395 101.938 6.708 Q99.625 9.02 96.375 9.02 H76.375 Z"/></g><g id="Semibold-M" transform="matrix(1 0 0 1 1985.97 1126)"><path d="M24.294 -28.605 Q21.532 -28.605 19.601 -30.537 Q17.668 -32.469 17.668 -35.23 Q17.668 -37.991 19.601 -39.923 Q21.532 -41.855 24.294 -41.855 H57.364 Q57.364 -41.855 57.364 -41.855 Q57.364 -41.855 57.364 -41.855 L79.891 -64.382 H75.777 Q73.016 -64.382 71.084 -66.314 Q69.152 -68.246 69.152 -71.007 Q69.152 -73.768 71.084 -75.7 Q73.016 -77.632 75.777 -77.632 H95.777 Q98.538 -77.632 100.47 -75.7 Q102.402 -73.768 102.402 -71.007 V-51.007 Q102.402 -48.246 100.47 -46.314 Q98.538 -44.382 95.777 -44.382 Q93.016 -44.382 91.084 -46.314 Q89.152 -48.246 89.152 -51.007 V-55.121 L66.5 -32.469 Q64.63 -30.599 62.217 -29.602 Q59.804 -28.605 57.169 -28.605 H24.294 Z M75.777 7.172 Q73.016 7.172 71.084 5.24 Q69.152 3.308 69.152 0.547 Q69.152 -2.214 71.084 -4.146 Q73.016 -6.078 75.777 -6.078 H79.75 L71.685 -14.018 Q69.69 -16.012 69.69 -18.746 Q69.69 -21.48 71.685 -23.474 Q73.679 -25.469 76.44 -25.504 Q79.201 -25.54 81.196 -23.545 L89.152 -15.48 V-19.453 Q89.152 -22.214 91.084 -24.146 Q93.016 -26.078 95.777 -26.078 Q98.538 -26.078 100.47 -24.146 Q102.402 -22.214 102.402 -19.453 V0.547 Q102.402 3.308 100.47 5.24 Q98.538 7.172 95.777 7.172 H75.777 Z"/></g><g id="Medium-M" transform="matrix(1 0 0 1 1689.91 1126)"><path d="M24.701 -29.542 Q22.307 -29.542 20.66 -31.189 Q19.014 -32.836 19.014 -35.23 Q19.014 -37.624 20.66 -39.271 Q22.307 -40.917 24.701 -40.917 H57.731 Q57.731 -40.917 57.731 -40.917 Q57.731 -40.917 57.731 -40.917 L81.685 -64.871 H75.329 Q72.935 -64.871 71.288 -66.518 Q69.641 -68.165 69.641 -70.559 Q69.641 -72.953 71.288 -74.6 Q72.935 -76.246 75.329 -76.246 H95.329 Q97.723 -76.246 99.37 -74.6 Q101.016 -72.953 101.016 -70.559 V-50.559 Q101.016 -48.165 99.37 -46.518 Q97.723 -44.871 95.329 -44.871 Q92.935 -44.871 91.288 -46.518 Q89.641 -48.165 89.641 -50.559 V-56.915 L65.562 -32.836 Q63.978 -31.252 61.912 -30.397 Q59.845 -29.542 57.576 -29.542 H24.701 Z M75.329 5.786 Q72.935 5.786 71.288 4.14 Q69.641 2.493 69.641 0.099 Q69.641 -2.295 71.288 -3.942 Q72.935 -5.589 75.329 -5.589 H81.625 L71.073 -16.015 Q69.364 -17.724 69.364 -20.071 Q69.364 -22.417 71.073 -24.127 Q72.783 -25.836 75.177 -25.851 Q77.571 -25.866 79.28 -24.157 L89.641 -13.605 V-19.901 Q89.641 -22.295 91.288 -23.942 Q92.935 -25.589 95.329 -25.589 Q97.723 -25.589 99.37 -23.942 Q101.016 -22.295 101.016 -19.901 V0.099 Q101.016 2.493 99.37 4.14 Q97.723 5.786 95.329 5.786 H75.329 Z"/></g><g id="Regular-M" transform="matrix(1 0 0 1 1394.06 1126)"><path d="M25 -30.23 Q22.875 -30.23 21.438 -31.667 Q20 -33.105 20 -35.23 Q20 -37.355 21.438 -38.792 Q22.875 -40.23 25 -40.23 H58 Q58 -40.23 58 -40.23 Q58 -40.23 58 -40.23 L83 -65.23 H75 Q72.875 -65.23 71.438 -66.667 Q70 -68.105 70 -70.23 Q70 -72.355 71.438 -73.792 Q72.875 -75.23 75 -75.23 H95 Q97.125 -75.23 98.562 -73.792 Q100 -72.355 100 -70.23 V-50.23 Q100 -48.105 98.562 -46.667 Q97.125 -45.23 95 -45.23 Q92.875 -45.23 91.438 -46.667 Q90 -48.105 90 -50.23 V-58.23 L64.875 -33.105 Q63.5 -31.73 61.688 -30.98 Q59.875 -30.23 57.875 -30.23 H25 Z M75 4.77 Q72.875 4.77 71.438 3.333 Q70 1.895 70 -0.23 Q70 -2.355 71.438 -3.792 Q72.875 -5.23 75 -5.23 H83 L70.625 -17.48 Q69.125 -18.98 69.125 -21.042 Q69.125 -23.105 70.625 -24.605 Q72.125 -26.105 74.25 -26.105 Q76.375 -26.105 77.875 -24.605 L90 -12.23 V-20.23 Q90 -22.355 91.438 -23.792 Q92.875 -25.23 95 -25.23 Q97.125 -25.23 98.562 -23.792 Q100 -22.355 100 -20.23 V-0.23 Q100 1.895 98.562 3.333 Q97.125 4.77 95 4.77 H75 Z"/></g><g id="Light-M" transform="matrix(1 0 0 1 1098.18 1126)"><path d="M26.25 -31.48 Q24.656 -31.48 23.578 -32.559 Q22.5 -33.637 22.5 -35.232 Q22.5 -36.826 23.578 -37.903 Q24.656 -38.98 26.25 -38.98 H57.856 Q58.144 -38.98 58.409 -39.076 Q58.673 -39.172 58.913 -39.413 L84.731 -65.23 H73.75 Q72.156 -65.23 71.078 -66.309 Q70 -67.387 70 -68.982 Q70 -70.576 71.078 -71.653 Q72.156 -72.73 73.75 -72.73 H92.981 Q94.901 -72.73 96.201 -71.43 Q97.5 -70.131 97.5 -68.211 V-48.98 Q97.5 -47.386 96.421 -46.308 Q95.343 -45.23 93.748 -45.23 Q92.154 -45.23 91.077 -46.308 Q90 -47.386 90 -48.98 V-59.961 L64.154 -34.115 Q62.923 -32.884 61.266 -32.182 Q59.608 -31.48 57.779 -31.48 H26.25 Z M73.75 2.27 Q72.156 2.27 71.078 1.191 Q70 0.113 70 -1.482 Q70 -3.076 71.078 -4.153 Q72.156 -5.23 73.75 -5.23 H84.731 L69.808 -20.076 Q68.692 -21.192 68.668 -22.725 Q68.644 -24.259 69.808 -25.422 Q70.971 -26.586 72.519 -26.586 Q74.067 -26.586 75.231 -25.422 L90 -10.499 V-21.48 Q90 -23.074 91.079 -24.152 Q92.157 -25.23 93.752 -25.23 Q95.346 -25.23 96.423 -24.152 Q97.5 -23.074 97.5 -21.48 V-2.249 Q97.5 -0.329 96.201 0.971 Q94.901 2.27 92.981 2.27 H73.75 Z"/></g><g id="Thin-M" transform="matrix(1 0 0 1 802.565 1126)"><path d="M27.5 -32.73 Q26.438 -32.73 25.719 -33.45 Q25 -34.169 25 -35.233 Q25 -36.297 25.719 -37.014 Q26.438 -37.73 27.5 -37.73 H57.712 Q58.288 -37.73 58.817 -37.922 Q59.346 -38.115 59.827 -38.595 L86.462 -65.23 H72.5 Q71.438 -65.23 70.719 -65.95 Q70 -66.669 70 -67.733 Q70 -68.797 70.719 -69.514 Q71.438 -70.23 72.5 -70.23 H90.962 Q92.678 -70.23 93.839 -69.069 Q95 -67.908 95 -66.192 V-47.73 Q95 -46.667 94.28 -45.949 Q93.561 -45.23 92.497 -45.23 Q91.433 -45.23 90.716 -45.949 Q90 -46.667 90 -47.73 V-61.691 L63.433 -35.124 Q62.346 -34.038 60.843 -33.384 Q59.341 -32.73 57.683 -32.73 H27.5 Z M72.5 -0.23 Q71.438 -0.23 70.719 -0.95 Q70 -1.669 70 -2.733 Q70 -3.797 70.719 -4.514 Q71.438 -5.23 72.5 -5.23 H86.462 L68.99 -22.672 Q68.26 -23.403 68.212 -24.408 Q68.163 -25.413 68.99 -26.24 Q69.817 -27.066 70.788 -27.066 Q71.76 -27.066 72.587 -26.24 L90 -8.768 V-22.73 Q90 -23.792 90.72 -24.511 Q91.439 -25.23 92.503 -25.23 Q93.567 -25.23 94.284 -24.511 Q95 -23.792 95 -22.73 V-4.268 Q95 -2.552 93.839 -1.391 Q92.678 -0.23 90.962 -0.23 H72.5 Z"/></g><g id="Ultralight-M" transform="matrix(1 0 0 1 506.415 1126)"><path d="M28.25 -33.48 Q27.506 -33.48 27.003 -33.984 Q26.5 -34.489 26.5 -35.234 Q26.5 -35.98 27.003 -36.48 Q27.506 -36.98 28.25 -36.98 H57.625 Q58.375 -36.98 59.062 -37.23 Q59.75 -37.48 60.375 -38.105 L87.5 -65.23 H71.75 Q71.006 -65.23 70.503 -65.734 Q70 -66.239 70 -66.984 Q70 -67.73 70.503 -68.23 Q71.006 -68.73 71.75 -68.73 H89.75 Q91.344 -68.73 92.422 -67.652 Q93.5 -66.574 93.5 -64.98 V-46.98 Q93.5 -46.236 92.996 -45.733 Q92.491 -45.23 91.746 -45.23 Q91 -45.23 90.5 -45.733 Q90 -46.236 90 -46.98 V-62.73 L63 -35.73 Q62 -34.73 60.59 -34.105 Q59.181 -33.48 57.625 -33.48 H28.25 Z M71.75 -1.73 Q71.006 -1.73 70.503 -2.234 Q70 -2.739 70 -3.484 Q70 -4.23 70.503 -4.73 Q71.006 -5.23 71.75 -5.23 H87.5 L68.5 -24.23 Q68 -24.73 67.938 -25.417 Q67.875 -26.105 68.5 -26.73 Q69.125 -27.355 69.75 -27.355 Q70.375 -27.355 71 -26.73 L90 -7.73 V-23.48 Q90 -24.224 90.504 -24.727 Q91.009 -25.23 91.754 -25.23 Q92.5 -25.23 93 -24.727 Q93.5 -24.224 93.5 -23.48 V-5.48 Q93.5 -3.886 92.422 -2.808 Q91.344 -1.73 89.75 -1.73 H71.75 Z"/></g><g id="Bold-S" transform="matrix(1 0 0 1 2294.23 696)"><path d="M21.527 -29.411 Q19.133 -29.411 17.407 -31.116 Q15.681 -32.821 15.681 -35.209 Q15.681 -37.597 17.391 -39.31 Q19.101 -41.022 21.496 -41.022 H44.996 Q44.996 -41.022 44.996 -41.022 Q44.996 -41.022 44.996 -41.022 L59.274 -55.349 H56.709 Q54.313 -55.349 52.602 -57.055 Q50.891 -58.76 50.891 -61.148 Q50.891 -63.535 52.602 -65.261 Q54.313 -66.987 56.709 -66.987 H73.278 Q75.675 -66.987 77.386 -65.276 Q79.097 -63.565 79.097 -61.168 V-44.599 Q79.097 -42.203 77.392 -40.492 Q75.687 -38.78 73.299 -38.78 Q70.911 -38.78 69.185 -40.492 Q67.46 -42.203 67.46 -44.599 V-47.164 L53.159 -32.863 Q51.384 -31.088 49.26 -30.249 Q47.137 -29.411 44.832 -29.411 H21.527 Z M56.709 -3.473 Q54.313 -3.473 52.602 -5.178 Q50.891 -6.883 50.891 -9.271 Q50.891 -11.659 52.602 -13.385 Q54.313 -15.11 56.709 -15.11 H59.076 L56.296 -17.881 Q54.54 -19.647 54.589 -22.014 Q54.638 -24.381 56.413 -26.156 Q58.189 -27.932 60.506 -27.981 Q62.824 -28.03 64.589 -26.274 L67.46 -23.494 V-25.861 Q67.46 -28.257 69.165 -29.968 Q70.87 -31.679 73.258 -31.679 Q75.645 -31.679 77.371 -29.968 Q79.097 -28.257 79.097 -25.861 V-9.292 Q79.097 -6.895 77.386 -5.184 Q75.675 -3.473 73.278 -3.473 H56.709 Z"/></g><g id="Semibold-S" transform="matrix(1 0 0 1 1998.1 696)"><path d="M21.956 -30.397 Q19.948 -30.397 18.522 -31.802 Q17.096 -33.207 17.096 -35.209 Q17.096 -37.211 18.506 -38.624 Q19.916 -40.036 21.924 -40.036 H45.382 Q45.382 -40.036 45.382 -40.036 Q45.382 -40.036 45.382 -40.036 L61.16 -55.864 H56.238 Q54.227 -55.864 52.816 -57.269 Q51.405 -58.674 51.405 -60.676 Q51.405 -62.678 52.816 -64.104 Q54.227 -65.529 56.238 -65.529 H72.807 Q74.817 -65.529 76.228 -64.118 Q77.639 -62.707 77.639 -60.697 V-44.128 Q77.639 -42.117 76.234 -40.706 Q74.829 -39.295 72.827 -39.295 Q70.826 -39.295 69.4 -40.706 Q67.974 -42.117 67.974 -44.128 V-49.05 L52.173 -33.249 Q50.698 -31.774 48.939 -31.086 Q47.18 -30.397 45.261 -30.397 H21.956 Z M56.238 -4.931 Q54.227 -4.931 52.816 -6.336 Q51.405 -7.741 51.405 -9.743 Q51.405 -11.744 52.816 -13.17 Q54.227 -14.596 56.238 -14.596 H61.049 L55.653 -19.982 Q54.197 -21.448 54.246 -23.408 Q54.295 -25.367 55.77 -26.843 Q57.245 -28.318 59.177 -28.345 Q61.109 -28.373 62.574 -26.917 L67.974 -21.521 V-26.332 Q67.974 -28.343 69.379 -29.754 Q70.784 -31.165 72.786 -31.165 Q74.788 -31.165 76.214 -29.754 Q77.639 -28.343 77.639 -26.332 V-9.763 Q77.639 -7.753 76.228 -6.342 Q74.817 -4.931 72.807 -4.931 H56.238 Z"/></g><g id="Medium-S" transform="matrix(1 0 0 1 1701.85 696)"><path d="M22.278 -31.137 Q20.559 -31.137 19.358 -32.317 Q18.158 -33.497 18.158 -35.209 Q18.158 -36.922 19.342 -38.109 Q20.527 -39.296 22.246 -39.296 H45.672 Q45.672 -39.296 45.672 -39.296 Q45.672 -39.296 45.672 -39.296 L62.575 -56.25 H55.884 Q54.163 -56.25 52.977 -57.43 Q51.791 -58.61 51.791 -60.322 Q51.791 -62.035 52.977 -63.235 Q54.163 -64.436 55.884 -64.436 H72.453 Q74.174 -64.436 75.36 -63.25 Q76.546 -62.064 76.546 -60.343 V-43.774 Q76.546 -42.053 75.366 -40.867 Q74.186 -39.681 72.474 -39.681 Q70.761 -39.681 69.561 -40.867 Q68.36 -42.053 68.36 -43.774 V-50.465 L51.433 -33.538 Q50.183 -32.288 48.698 -31.713 Q47.212 -31.137 45.582 -31.137 H22.278 Z M55.884 -6.024 Q54.163 -6.024 52.977 -7.204 Q51.791 -8.384 51.791 -10.096 Q51.791 -11.809 52.977 -13.009 Q54.163 -14.21 55.884 -14.21 H62.528 L55.171 -21.558 Q53.939 -22.799 53.989 -24.453 Q54.038 -26.107 55.288 -27.357 Q56.538 -28.607 58.18 -28.619 Q59.822 -28.631 61.062 -27.399 L68.36 -20.042 V-26.686 Q68.36 -28.407 69.54 -29.593 Q70.72 -30.779 72.432 -30.779 Q74.145 -30.779 75.345 -29.593 Q76.546 -28.407 76.546 -26.686 V-10.117 Q76.546 -8.396 75.36 -7.21 Q74.174 -6.024 72.453 -6.024 H55.884 Z"/></g><g id="Regular-S" transform="matrix(1 0 0 1 1405.73 696)"><path d="M22.514 -31.679 Q21.007 -31.679 19.972 -32.694 Q18.936 -33.709 18.936 -35.209 Q18.936 -36.709 19.955 -37.732 Q20.975 -38.754 22.482 -38.754 H45.884 Q45.884 -38.754 45.884 -38.754 Q45.884 -38.754 45.884 -38.754 L63.613 -56.533 H55.625 Q54.116 -56.533 53.095 -57.548 Q52.074 -58.563 52.074 -60.063 Q52.074 -61.563 53.095 -62.598 Q54.116 -63.634 55.625 -63.634 H72.194 Q73.702 -63.634 74.723 -62.613 Q75.744 -61.592 75.744 -60.083 V-43.514 Q75.744 -42.006 74.729 -40.985 Q73.714 -39.964 72.214 -39.964 Q70.714 -39.964 69.679 -40.985 Q68.643 -42.006 68.643 -43.514 V-51.503 L50.891 -33.751 Q49.806 -32.666 48.521 -32.173 Q47.236 -31.679 45.818 -31.679 H22.514 Z M55.625 -6.826 Q54.116 -6.826 53.095 -7.841 Q52.074 -8.856 52.074 -10.356 Q52.074 -11.856 53.095 -12.891 Q54.116 -13.927 55.625 -13.927 H63.613 L54.817 -22.714 Q53.751 -23.789 53.8 -25.22 Q53.849 -26.65 54.934 -27.734 Q56.019 -28.819 57.449 -28.819 Q58.879 -28.819 59.954 -27.753 L68.643 -18.957 V-26.945 Q68.643 -28.454 69.658 -29.475 Q70.673 -30.496 72.173 -30.496 Q73.673 -30.496 74.708 -29.475 Q75.744 -28.454 75.744 -26.945 V-10.376 Q75.744 -8.868 74.723 -7.847 Q73.702 -6.826 72.194 -6.826 H55.625 Z"/></g><g id="Light-S" transform="matrix(1 0 0 1 1109.75 696)"><path d="M23.5 -32.666 Q22.413 -32.666 21.661 -33.397 Q20.909 -34.129 20.909 -35.211 Q20.909 -36.292 21.645 -37.03 Q22.38 -37.768 23.468 -37.768 H45.77 Q45.998 -37.768 46.207 -37.844 Q46.415 -37.919 46.605 -38.109 L64.979 -56.533 H54.638 Q53.548 -56.533 52.811 -57.265 Q52.074 -57.996 52.074 -59.078 Q52.074 -60.159 52.811 -60.91 Q53.548 -61.661 54.638 -61.661 H70.6 Q71.948 -61.661 72.86 -60.75 Q73.771 -59.838 73.771 -58.49 V-42.528 Q73.771 -41.438 73.04 -40.701 Q72.308 -39.964 71.227 -39.964 Q70.145 -39.964 69.394 -40.701 Q68.643 -41.438 68.643 -42.528 V-52.869 L50.321 -34.547 Q49.35 -33.576 48.188 -33.121 Q47.025 -32.666 45.742 -32.666 H23.5 Z M54.638 -8.799 Q53.548 -8.799 52.811 -9.53 Q52.074 -10.262 52.074 -11.343 Q52.074 -12.425 52.811 -13.176 Q53.548 -13.927 54.638 -13.927 H64.979 L54.172 -24.762 Q53.409 -25.535 53.44 -26.547 Q53.47 -27.56 54.289 -28.379 Q55.109 -29.199 56.083 -29.199 Q57.058 -29.199 57.868 -28.398 L68.643 -17.591 V-27.932 Q68.643 -29.022 69.375 -29.759 Q70.106 -30.496 71.188 -30.496 Q72.269 -30.496 73.02 -29.759 Q73.771 -29.022 73.771 -27.932 V-11.97 Q73.771 -10.622 72.86 -9.71 Q71.948 -8.799 70.6 -8.799 H54.638 Z"/></g><g id="Thin-S" transform="matrix(1 0 0 1 814.015 696)"><path d="M24.486 -33.652 Q23.818 -33.652 23.349 -34.1 Q22.881 -34.549 22.881 -35.212 Q22.881 -35.875 23.333 -36.328 Q23.786 -36.781 24.454 -36.781 H45.656 Q46.112 -36.781 46.529 -36.933 Q46.946 -37.085 47.326 -37.464 L66.344 -56.533 H53.652 Q52.981 -56.533 52.528 -56.981 Q52.074 -57.43 52.074 -58.093 Q52.074 -58.756 52.528 -59.222 Q52.981 -59.689 53.652 -59.689 H69.007 Q70.194 -59.689 70.996 -58.886 Q71.799 -58.084 71.799 -56.897 V-41.542 Q71.799 -40.871 71.351 -40.418 Q70.902 -39.964 70.239 -39.964 Q69.576 -39.964 69.11 -40.418 Q68.643 -40.871 68.643 -41.542 V-54.234 L49.753 -35.344 Q48.895 -34.486 47.855 -34.069 Q46.814 -33.652 45.666 -33.652 H24.486 Z M53.652 -10.771 Q52.981 -10.771 52.528 -11.219 Q52.074 -11.668 52.074 -12.331 Q52.074 -12.994 52.528 -13.46 Q52.981 -13.927 53.652 -13.927 H66.344 L53.527 -26.81 Q53.068 -27.279 53.079 -27.875 Q53.091 -28.47 53.644 -29.024 Q54.198 -29.578 54.718 -29.578 Q55.238 -29.578 55.782 -29.043 L68.643 -16.226 V-28.918 Q68.643 -29.589 69.091 -30.042 Q69.54 -30.496 70.203 -30.496 Q70.866 -30.496 71.332 -30.042 Q71.799 -29.589 71.799 -28.918 V-13.563 Q71.799 -12.376 70.996 -11.574 Q70.194 -10.771 69.007 -10.771 H53.652 Z"/></g><g id="Ultralight-S" transform="matrix(1 0 0 1 517.792 696)"><path d="M25.078 -34.244 Q24.661 -34.244 24.363 -34.522 Q24.065 -34.801 24.065 -35.213 Q24.065 -35.624 24.347 -35.907 Q24.629 -36.19 25.046 -36.19 H45.588 Q46.18 -36.19 46.722 -36.387 Q47.265 -36.584 47.758 -37.077 L67.164 -56.533 H53.06 Q52.641 -56.533 52.358 -56.812 Q52.074 -57.09 52.074 -57.502 Q52.074 -57.914 52.358 -58.21 Q52.641 -58.505 53.06 -58.505 H68.051 Q69.141 -58.505 69.878 -57.768 Q70.615 -57.031 70.615 -55.941 V-40.95 Q70.615 -40.531 70.337 -40.248 Q70.058 -39.964 69.647 -39.964 Q69.235 -39.964 68.939 -40.248 Q68.643 -40.531 68.643 -40.95 V-55.054 L49.411 -35.822 Q48.622 -35.033 47.655 -34.638 Q46.688 -34.244 45.621 -34.244 H25.078 Z M53.06 -11.954 Q52.641 -11.954 52.358 -12.233 Q52.074 -12.512 52.074 -12.923 Q52.074 -13.335 52.358 -13.631 Q52.641 -13.927 53.06 -13.927 H67.164 L53.14 -28.039 Q52.863 -28.326 52.863 -28.671 Q52.863 -29.017 53.258 -29.411 Q53.652 -29.806 53.899 -29.806 Q54.145 -29.806 54.53 -29.43 L68.643 -15.406 V-29.51 Q68.643 -29.929 68.922 -30.212 Q69.2 -30.496 69.612 -30.496 Q70.024 -30.496 70.32 -30.212 Q70.615 -29.929 70.615 -29.51 V-14.519 Q70.615 -13.429 69.878 -12.692 Q69.141 -11.954 68.051 -11.954 H53.06 Z"/></g></g></svg>